# xmcd CD database file
#
# Track frame offsets:
#	150
#	27197
#	48857
#	70430
#	92815
#	117087
#	147190
#	176132
#	213110
#	239117
#	263197
#
# Disc length: 3793 seconds
#
# Revision: 5
# Processed by: cddbd v1.5.2PL0 Copyright (c) Steve Scherf et al.
# Submitted via: CDex 1.51
#
DISCID=9f0ecf0b
DTITLE=Asia - Aura
DYEAR=2001
DGENRE=Progressive Rock
TTITLE0=Awake
TTITLE1=Wherever You Are
TTITLE2=Ready To Go Home
TTITLE3=The Last Time
TTITLE4=Forgive Me
TTITLE5=King Of The Day
TTITLE6=On The Coldest Day In Hell
TTITLE7=Free
TTITLE8=You're The Stranger
TTITLE9=The Longest Night
TTITLE10=Aura
EXTD=YEAR: 2001
EXTT0=
EXTT1=
EXTT2=
EXTT3=
EXTT4=
EXTT5=
EXTT6=
EXTT7=
EXTT8=
EXTT9=
EXTT10=
PLAYORDER=
